  0
SECTION
  2
HEADER
  9
$ACADVER
  1
AC1009
  9
$FILLMODE
 70
 0
  9
$SPLFRAME
 70
 1
  9
$EXTMIN
 10
0
 20
0
 30
0.0
  9
$EXTMAX
 10
1058.33
 20
1058.33
 30
0.0
  0
ENDSEC
  0
SECTION
  2
TABLES
  0
TABLE
  2
LAYER
 70
1
  0
LAYER
  2
0
 70
     0
 62
     7
  6
CONTINUOUS
  0
ENDTAB
  0
ENDSEC
  0
SECTION
  2
ENTITIES
  0
LINE
  8
0
 62
     0
 10
0.0950846
 20
105.385
 30
0.0
 11
391.096
 21
105.385
 31
0.0
  0
LINE
  8
0
 62
     0
 10
391.096
 20
105.385
 30
0.0
 11
391.096
 21
0.136426
 31
0.0
  0
LINE
  8
0
 62
     0
 10
391.096
 20
0.136426
 30
0.0
 11
0.0950846
 21
0.136426
 31
0.0
  0
LINE
  8
0
 62
     0
 10
0.0950846
 20
0.136426
 30
0.0
 11
0.0950846
 21
105.385
 31
0.0
  0
LINE
  8
0
 62
     0
 10
388.849
 20
3.40651
 30
0.0
 11
388.405
 21
3.18051
 31
0.0
  0
LINE
  8
0
 62
     0
 10
388.405
 20
3.18051
 30
0.0
 11
388.048
 21
2.82636
 31
0.0
  0
LINE
  8
0
 62
     0
 10
388.048
 20
2.82636
 30
0.0
 11
387.823
 21
2.37987
 31
0.0
  0
LINE
  8
0
 62
     0
 10
387.823
 20
2.37987
 30
0.0
 11
387.745
 21
1.88654
 31
0.0
  0
LINE
  8
0
 62
     0
 10
387.745
 20
1.88654
 30
0.0
 11
387.823
 21
1.39044
 31
0.0
  0
LINE
  8
0
 62
     0
 10
387.823
 20
1.39044
 30
0.0
 11
388.048
 21
0.945335
 31
0.0
  0
LINE
  8
0
 62
     0
 10
388.048
 20
0.945335
 30
0.0
 11
388.405
 21
0.591178
 31
0.0
  0
LINE
  8
0
 62
     0
 10
388.405
 20
0.591178
 30
0.0
 11
388.849
 21
0.363802
 31
0.0
  0
LINE
  8
0
 62
     0
 10
388.849
 20
0.363802
 30
0.0
 11
389.347
 21
0.286632
 31
0.0
  0
LINE
  8
0
 62
     0
 10
389.347
 20
0.286632
 30
0.0
 11
389.841
 21
0.363802
 31
0.0
  0
LINE
  8
0
 62
     0
 10
389.841
 20
0.363802
 30
0.0
 11
390.285
 21
0.591178
 31
0.0
  0
LINE
  8
0
 62
     0
 10
390.285
 20
0.591178
 30
0.0
 11
390.638
 21
0.945335
 31
0.0
  0
LINE
  8
0
 62
     0
 10
390.638
 20
0.945335
 30
0.0
 11
390.867
 21
1.39044
 31
0.0
  0
LINE
  8
0
 62
     0
 10
390.867
 20
1.39044
 30
0.0
 11
390.945
 21
1.88654
 31
0.0
  0
LINE
  8
0
 62
     0
 10
390.945
 20
1.88654
 30
0.0
 11
390.867
 21
2.37987
 31
0.0
  0
LINE
  8
0
 62
     0
 10
390.867
 20
2.37987
 30
0.0
 11
390.638
 21
2.82636
 31
0.0
  0
LINE
  8
0
 62
     0
 10
390.638
 20
2.82636
 30
0.0
 11
390.285
 21
3.18051
 31
0.0
  0
LINE
  8
0
 62
     0
 10
390.285
 20
3.18051
 30
0.0
 11
389.841
 21
3.40651
 31
0.0
  0
LINE
  8
0
 62
     0
 10
389.841
 20
3.40651
 30
0.0
 11
389.347
 21
3.48506
 31
0.0
  0
LINE
  8
0
 62
     0
 10
389.347
 20
3.48506
 30
0.0
 11
388.849
 21
3.40651
 31
0.0
  0
LINE
  8
0
 62
     0
 10
259.683
 20
3.40651
 30
0.0
 11
259.238
 21
3.18051
 31
0.0
  0
LINE
  8
0
 62
     0
 10
259.238
 20
3.18051
 30
0.0
 11
258.884
 21
2.82636
 31
0.0
  0
LINE
  8
0
 62
     0
 10
258.884
 20
2.82636
 30
0.0
 11
258.656
 21
2.37987
 31
0.0
  0
LINE
  8
0
 62
     0
 10
258.656
 20
2.37987
 30
0.0
 11
258.578
 21
1.88654
 31
0.0
  0
LINE
  8
0
 62
     0
 10
258.578
 20
1.88654
 30
0.0
 11
258.656
 21
1.39044
 31
0.0
  0
LINE
  8
0
 62
     0
 10
258.656
 20
1.39044
 30
0.0
 11
258.884
 21
0.945335
 31
0.0
  0
LINE
  8
0
 62
     0
 10
258.884
 20
0.945335
 30
0.0
 11
259.238
 21
0.591178
 31
0.0
  0
LINE
  8
0
 62
     0
 10
259.238
 20
0.591178
 30
0.0
 11
259.683
 21
0.363802
 31
0.0
  0
LINE
  8
0
 62
     0
 10
259.683
 20
0.363802
 30
0.0
 11
260.179
 21
0.286632
 31
0.0
  0
LINE
  8
0
 62
     0
 10
260.179
 20
0.286632
 30
0.0
 11
260.672
 21
0.363802
 31
0.0
  0
LINE
  8
0
 62
     0
 10
260.672
 20
0.363802
 30
0.0
 11
261.119
 21
0.591178
 31
0.0
  0
LINE
  8
0
 62
     0
 10
261.119
 20
0.591178
 30
0.0
 11
261.473
 21
0.945335
 31
0.0
  0
LINE
  8
0
 62
     0
 10
261.473
 20
0.945335
 30
0.0
 11
261.699
 21
1.39044
 31
0.0
  0
LINE
  8
0
 62
     0
 10
261.699
 20
1.39044
 30
0.0
 11
261.779
 21
1.88654
 31
0.0
  0
LINE
  8
0
 62
     0
 10
261.779
 20
1.88654
 30
0.0
 11
261.699
 21
2.37987
 31
0.0
  0
LINE
  8
0
 62
     0
 10
261.699
 20
2.37987
 30
0.0
 11
261.473
 21
2.82636
 31
0.0
  0
LINE
  8
0
 62
     0
 10
261.473
 20
2.82636
 30
0.0
 11
261.119
 21
3.18051
 31
0.0
  0
LINE
  8
0
 62
     0
 10
261.119
 20
3.18051
 30
0.0
 11
260.672
 21
3.40651
 31
0.0
  0
LINE
  8
0
 62
     0
 10
260.672
 20
3.40651
 30
0.0
 11
260.179
 21
3.48506
 31
0.0
  0
LINE
  8
0
 62
     0
 10
260.179
 20
3.48506
 30
0.0
 11
259.683
 21
3.40651
 31
0.0
  0
LINE
  8
0
 62
     0
 10
130.517
 20
3.40651
 30
0.0
 11
130.07
 21
3.18051
 31
0.0
  0
LINE
  8
0
 62
     0
 10
130.07
 20
3.18051
 30
0.0
 11
129.716
 21
2.82636
 31
0.0
  0
LINE
  8
0
 62
     0
 10
129.716
 20
2.82636
 30
0.0
 11
129.49
 21
2.37987
 31
0.0
  0
LINE
  8
0
 62
     0
 10
129.49
 20
2.37987
 30
0.0
 11
129.412
 21
1.88654
 31
0.0
  0
LINE
  8
0
 62
     0
 10
129.412
 20
1.88654
 30
0.0
 11
129.49
 21
1.39044
 31
0.0
  0
LINE
  8
0
 62
     0
 10
129.49
 20
1.39044
 30
0.0
 11
129.716
 21
0.945335
 31
0.0
  0
LINE
  8
0
 62
     0
 10
129.716
 20
0.945335
 30
0.0
 11
130.07
 21
0.591178
 31
0.0
  0
LINE
  8
0
 62
     0
 10
130.07
 20
0.591178
 30
0.0
 11
130.517
 21
0.363802
 31
0.0
  0
LINE
  8
0
 62
     0
 10
130.517
 20
0.363802
 30
0.0
 11
131.011
 21
0.286632
 31
0.0
  0
LINE
  8
0
 62
     0
 10
131.011
 20
0.286632
 30
0.0
 11
131.505
 21
0.363802
 31
0.0
  0
LINE
  8
0
 62
     0
 10
131.505
 20
0.363802
 30
0.0
 11
131.951
 21
0.591178
 31
0.0
  0
LINE
  8
0
 62
     0
 10
131.951
 20
0.591178
 30
0.0
 11
132.305
 21
0.945335
 31
0.0
  0
LINE
  8
0
 62
     0
 10
132.305
 20
0.945335
 30
0.0
 11
132.533
 21
1.39044
 31
0.0
  0
LINE
  8
0
 62
     0
 10
132.533
 20
1.39044
 30
0.0
 11
132.611
 21
1.88654
 31
0.0
  0
LINE
  8
0
 62
     0
 10
132.611
 20
1.88654
 30
0.0
 11
132.533
 21
2.37987
 31
0.0
  0
LINE
  8
0
 62
     0
 10
132.533
 20
2.37987
 30
0.0
 11
132.305
 21
2.82636
 31
0.0
  0
LINE
  8
0
 62
     0
 10
132.305
 20
2.82636
 30
0.0
 11
131.951
 21
3.18051
 31
0.0
  0
LINE
  8
0
 62
     0
 10
131.951
 20
3.18051
 30
0.0
 11
131.505
 21
3.40651
 31
0.0
  0
LINE
  8
0
 62
     0
 10
131.505
 20
3.40651
 30
0.0
 11
131.011
 21
3.48506
 31
0.0
  0
LINE
  8
0
 62
     0
 10
131.011
 20
3.48506
 30
0.0
 11
130.517
 21
3.40651
 31
0.0
  0
LINE
  8
0
 62
     0
 10
1.3491
 20
3.40651
 30
0.0
 11
0.903993
 21
3.18051
 31
0.0
  0
LINE
  8
0
 62
     0
 10
0.903993
 20
3.18051
 30
0.0
 11
0.549836
 21
2.82636
 31
0.0
  0
LINE
  8
0
 62
     0
 10
0.549836
 20
2.82636
 30
0.0
 11
0.322461
 21
2.37987
 31
0.0
  0
LINE
  8
0
 62
     0
 10
0.322461
 20
2.37987
 30
0.0
 11
0.243913
 21
1.88654
 31
0.0
  0
LINE
  8
0
 62
     0
 10
0.243913
 20
1.88654
 30
0.0
 11
0.322461
 21
1.39044
 31
0.0
  0
LINE
  8
0
 62
     0
 10
0.322461
 20
1.39044
 30
0.0
 11
0.549836
 21
0.945335
 31
0.0
  0
LINE
  8
0
 62
     0
 10
0.549836
 20
0.945335
 30
0.0
 11
0.903993
 21
0.591178
 31
0.0
  0
LINE
  8
0
 62
     0
 10
0.903993
 20
0.591178
 30
0.0
 11
1.3491
 21
0.363802
 31
0.0
  0
LINE
  8
0
 62
     0
 10
1.3491
 20
0.363802
 30
0.0
 11
1.84381
 21
0.286632
 31
0.0
  0
LINE
  8
0
 62
     0
 10
1.84381
 20
0.286632
 30
0.0
 11
2.33853
 21
0.363802
 31
0.0
  0
LINE
  8
0
 62
     0
 10
2.33853
 20
0.363802
 30
0.0
 11
2.78501
 21
0.591178
 31
0.0
  0
LINE
  8
0
 62
     0
 10
2.78501
 20
0.591178
 30
0.0
 11
3.13917
 21
0.945335
 31
0.0
  0
LINE
  8
0
 62
     0
 10
3.13917
 20
0.945335
 30
0.0
 11
3.36517
 21
1.39044
 31
0.0
  0
LINE
  8
0
 62
     0
 10
3.36517
 20
1.39044
 30
0.0
 11
3.4451
 21
1.88654
 31
0.0
  0
LINE
  8
0
 62
     0
 10
3.4451
 20
1.88654
 30
0.0
 11
3.36517
 21
2.37987
 31
0.0
  0
LINE
  8
0
 62
     0
 10
3.36517
 20
2.37987
 30
0.0
 11
3.13917
 21
2.82636
 31
0.0
  0
LINE
  8
0
 62
     0
 10
3.13917
 20
2.82636
 30
0.0
 11
2.78501
 21
3.18051
 31
0.0
  0
LINE
  8
0
 62
     0
 10
2.78501
 20
3.18051
 30
0.0
 11
2.33853
 21
3.40651
 31
0.0
  0
LINE
  8
0
 62
     0
 10
2.33853
 20
3.40651
 30
0.0
 11
1.84381
 21
3.48506
 31
0.0
  0
LINE
  8
0
 62
     0
 10
1.84381
 20
3.48506
 30
0.0
 11
1.3491
 21
3.40651
 31
0.0
  0
LINE
  8
0
 62
     0
 10
157.638
 20
21.6614
 30
0.0
 11
157.638
 21
16.9609
 31
0.0
  0
LINE
  8
0
 62
     0
 10
157.638
 20
16.9609
 30
0.0
 11
118.012
 21
16.9609
 31
0.0
  0
LINE
  8
0
 62
     0
 10
118.012
 20
16.9609
 30
0.0
 11
118.012
 21
20.191
 31
0.0
  0
LINE
  8
0
 62
     0
 10
118.012
 20
20.191
 30
0.0
 11
111.263
 21
20.191
 31
0.0
  0
LINE
  8
0
 62
     0
 10
111.263
 20
20.191
 30
0.0
 11
111.263
 21
16.9609
 31
0.0
  0
LINE
  8
0
 62
     0
 10
111.263
 20
16.9609
 30
0.0
 11
110.437
 21
16.9609
 31
0.0
  0
LINE
  8
0
 62
     0
 10
110.437
 20
16.9609
 30
0.0
 11
110.437
 21
14.1607
 31
0.0
  0
LINE
  8
0
 62
     0
 10
110.437
 20
14.1607
 30
0.0
 11
111.263
 21
14.1607
 31
0.0
  0
LINE
  8
0
 62
     0
 10
111.263
 20
14.1607
 30
0.0
 11
111.263
 21
7.89203
 31
0.0
  0
LINE
  8
0
 62
     0
 10
111.263
 20
7.89203
 30
0.0
 11
112.988
 21
7.89203
 31
0.0
  0
LINE
  8
0
 62
     0
 10
112.988
 20
7.89203
 30
0.0
 11
112.988
 21
6.69177
 31
0.0
  0
LINE
  8
0
 62
     0
 10
112.988
 20
6.69177
 30
0.0
 11
116.287
 21
6.69177
 31
0.0
  0
LINE
  8
0
 62
     0
 10
116.287
 20
6.69177
 30
0.0
 11
116.287
 21
7.89203
 31
0.0
  0
LINE
  8
0
 62
     0
 10
116.287
 20
7.89203
 30
0.0
 11
118.012
 21
7.89203
 31
0.0
  0
LINE
  8
0
 62
     0
 10
118.012
 20
7.89203
 30
0.0
 11
118.012
 21
12.3624
 31
0.0
  0
LINE
  8
0
 62
     0
 10
118.012
 20
12.3624
 30
0.0
 11
157.638
 21
12.3624
 31
0.0
  0
LINE
  8
0
 62
     0
 10
157.638
 20
12.3624
 30
0.0
 11
157.638
 21
7.6605
 31
0.0
  0
LINE
  8
0
 62
     0
 10
157.638
 20
7.6605
 30
0.0
 11
171.637
 21
7.6605
 31
0.0
  0
LINE
  8
0
 62
     0
 10
171.637
 20
7.6605
 30
0.0
 11
171.637
 21
12.3624
 31
0.0
  0
LINE
  8
0
 62
     0
 10
171.637
 20
12.3624
 30
0.0
 11
211.263
 21
12.3624
 31
0.0
  0
LINE
  8
0
 62
     0
 10
211.263
 20
12.3624
 30
0.0
 11
211.263
 21
7.89203
 31
0.0
  0
LINE
  8
0
 62
     0
 10
211.263
 20
7.89203
 30
0.0
 11
212.987
 21
7.89203
 31
0.0
  0
LINE
  8
0
 62
     0
 10
212.987
 20
7.89203
 30
0.0
 11
212.987
 21
6.69177
 31
0.0
  0
LINE
  8
0
 62
     0
 10
212.987
 20
6.69177
 30
0.0
 11
216.287
 21
6.69177
 31
0.0
  0
LINE
  8
0
 62
     0
 10
216.287
 20
6.69177
 30
0.0
 11
216.287
 21
7.89203
 31
0.0
  0
LINE
  8
0
 62
     0
 10
216.287
 20
7.89203
 30
0.0
 11
218.012
 21
7.89203
 31
0.0
  0
LINE
  8
0
 62
     0
 10
218.012
 20
7.89203
 30
0.0
 11
218.012
 21
14.1607
 31
0.0
  0
LINE
  8
0
 62
     0
 10
218.012
 20
14.1607
 30
0.0
 11
218.838
 21
14.1607
 31
0.0
  0
LINE
  8
0
 62
     0
 10
218.838
 20
14.1607
 30
0.0
 11
218.838
 21
16.9609
 31
0.0
  0
LINE
  8
0
 62
     0
 10
218.838
 20
16.9609
 30
0.0
 11
218.012
 21
16.9609
 31
0.0
  0
LINE
  8
0
 62
     0
 10
218.012
 20
16.9609
 30
0.0
 11
218.012
 21
20.191
 31
0.0
  0
LINE
  8
0
 62
     0
 10
218.012
 20
20.191
 30
0.0
 11
211.263
 21
20.191
 31
0.0
  0
LINE
  8
0
 62
     0
 10
211.263
 20
20.191
 30
0.0
 11
211.263
 21
16.9609
 31
0.0
  0
LINE
  8
0
 62
     0
 10
211.263
 20
16.9609
 30
0.0
 11
171.637
 21
16.9609
 31
0.0
  0
LINE
  8
0
 62
     0
 10
171.637
 20
16.9609
 30
0.0
 11
171.637
 21
21.6614
 31
0.0
  0
LINE
  8
0
 62
     0
 10
171.637
 20
21.6614
 30
0.0
 11
157.638
 21
21.6614
 31
0.0
  0
LINE
  8
0
 62
     0
 10
62.388
 20
21.6614
 30
0.0
 11
76.3873
 21
21.6614
 31
0.0
  0
LINE
  8
0
 62
     0
 10
76.3873
 20
21.6614
 30
0.0
 11
76.3873
 21
7.6605
 31
0.0
  0
LINE
  8
0
 62
     0
 10
76.3873
 20
7.6605
 30
0.0
 11
62.388
 21
7.6605
 31
0.0
  0
LINE
  8
0
 62
     0
 10
62.388
 20
7.6605
 30
0.0
 11
62.388
 21
21.6614
 31
0.0
  0
LINE
  8
0
 62
     0
 10
86.2005
 20
21.6614
 30
0.0
 11
100.2
 21
21.6614
 31
0.0
  0
LINE
  8
0
 62
     0
 10
100.2
 20
21.6614
 30
0.0
 11
100.2
 21
7.6605
 31
0.0
  0
LINE
  8
0
 62
     0
 10
100.2
 20
7.6605
 30
0.0
 11
86.2005
 21
7.6605
 31
0.0
  0
LINE
  8
0
 62
     0
 10
86.2005
 20
7.6605
 30
0.0
 11
86.2005
 21
21.6614
 31
0.0
  0
LINE
  8
0
 62
     0
 10
229.076
 20
21.6614
 30
0.0
 11
243.075
 21
21.6614
 31
0.0
  0
LINE
  8
0
 62
     0
 10
243.075
 20
21.6614
 30
0.0
 11
243.075
 21
7.6605
 31
0.0
  0
LINE
  8
0
 62
     0
 10
243.075
 20
7.6605
 30
0.0
 11
229.076
 21
7.6605
 31
0.0
  0
LINE
  8
0
 62
     0
 10
229.076
 20
7.6605
 30
0.0
 11
229.076
 21
21.6614
 31
0.0
  0
LINE
  8
0
 62
     0
 10
252.888
 20
21.6614
 30
0.0
 11
266.887
 21
21.6614
 31
0.0
  0
LINE
  8
0
 62
     0
 10
266.887
 20
21.6614
 30
0.0
 11
266.887
 21
7.6605
 31
0.0
  0
LINE
  8
0
 62
     0
 10
266.887
 20
7.6605
 30
0.0
 11
252.888
 21
7.6605
 31
0.0
  0
LINE
  8
0
 62
     0
 10
252.888
 20
7.6605
 30
0.0
 11
252.888
 21
21.6614
 31
0.0
  0
LINE
  8
0
 62
     0
 10
48.1005
 20
40.7113
 30
0.0
 11
48.1005
 21
36.0109
 31
0.0
  0
LINE
  8
0
 62
     0
 10
48.1005
 20
36.0109
 30
0.0
 11
46.5748
 21
36.0109
 31
0.0
  0
LINE
  8
0
 62
     0
 10
46.5748
 20
36.0109
 30
0.0
 11
46.5748
 21
39.2409
 31
0.0
  0
LINE
  8
0
 62
     0
 10
46.5748
 20
39.2409
 30
0.0
 11
39.8254
 21
39.2409
 31
0.0
  0
LINE
  8
0
 62
     0
 10
39.8254
 20
39.2409
 30
0.0
 11
39.8254
 21
36.0109
 31
0.0
  0
LINE
  8
0
 62
     0
 10
39.8254
 20
36.0109
 30
0.0
 11
38.9999
 21
36.0109
 31
0.0
  0
LINE
  8
0
 62
     0
 10
38.9999
 20
36.0109
 30
0.0
 11
38.9999
 21
33.2107
 31
0.0
  0
LINE
  8
0
 62
     0
 10
38.9999
 20
33.2107
 30
0.0
 11
39.8254
 21
33.2107
 31
0.0
  0
LINE
  8
0
 62
     0
 10
39.8254
 20
33.2107
 30
0.0
 11
39.8254
 21
26.9407
 31
0.0
  0
LINE
  8
0
 62
     0
 10
39.8254
 20
26.9407
 30
0.0
 11
41.5505
 21
26.9407
 31
0.0
  0
LINE
  8
0
 62
     0
 10
41.5505
 20
26.9407
 30
0.0
 11
41.5505
 21
25.7418
 31
0.0
  0
LINE
  8
0
 62
     0
 10
41.5505
 20
25.7418
 30
0.0
 11
44.8511
 21
25.7418
 31
0.0
  0
LINE
  8
0
 62
     0
 10
44.8511
 20
25.7418
 30
0.0
 11
44.8511
 21
26.9407
 31
0.0
  0
LINE
  8
0
 62
     0
 10
44.8511
 20
26.9407
 30
0.0
 11
46.5748
 21
26.9407
 31
0.0
  0
LINE
  8
0
 62
     0
 10
46.5748
 20
26.9407
 30
0.0
 11
46.5748
 21
31.411
 31
0.0
  0
LINE
  8
0
 62
     0
 10
46.5748
 20
31.411
 30
0.0
 11
48.1005
 21
31.411
 31
0.0
  0
LINE
  8
0
 62
     0
 10
48.1005
 20
31.411
 30
0.0
 11
48.1005
 21
26.7105
 31
0.0
  0
LINE
  8
0
 62
     0
 10
48.1005
 20
26.7105
 30
0.0
 11
62.0998
 21
26.7105
 31
0.0
  0
LINE
  8
0
 62
     0
 10
62.0998
 20
26.7105
 30
0.0
 11
62.0998
 21
31.411
 31
0.0
  0
LINE
  8
0
 62
     0
 10
62.0998
 20
31.411
 30
0.0
 11
63.6252
 21
31.411
 31
0.0
  0
LINE
  8
0
 62
     0
 10
63.6252
 20
31.411
 30
0.0
 11
63.6252
 21
26.9407
 31
0.0
  0
LINE
  8
0
 62
     0
 10
63.6252
 20
26.9407
 30
0.0
 11
65.3507
 21
26.9407
 31
0.0
  0
LINE
  8
0
 62
     0
 10
65.3507
 20
26.9407
 30
0.0
 11
65.3507
 21
25.7418
 31
0.0
  0
LINE
  8
0
 62
     0
 10
65.3507
 20
25.7418
 30
0.0
 11
68.6513
 21
25.7418
 31
0.0
  0
LINE
  8
0
 62
     0
 10
68.6513
 20
25.7418
 30
0.0
 11
68.6513
 21
26.9407
 31
0.0
  0
LINE
  8
0
 62
     0
 10
68.6513
 20
26.9407
 30
0.0
 11
70.3749
 21
26.9407
 31
0.0
  0
LINE
  8
0
 62
     0
 10
70.3749
 20
26.9407
 30
0.0
 11
70.3749
 21
33.2107
 31
0.0
  0
LINE
  8
0
 62
     0
 10
70.3749
 20
33.2107
 30
0.0
 11
71.2004
 21
33.2107
 31
0.0
  0
LINE
  8
0
 62
     0
 10
71.2004
 20
33.2107
 30
0.0
 11
71.2004
 21
36.0109
 31
0.0
  0
LINE
  8
0
 62
     0
 10
71.2004
 20
36.0109
 30
0.0
 11
70.3749
 21
36.0109
 31
0.0
  0
LINE
  8
0
 62
     0
 10
70.3749
 20
36.0109
 30
0.0
 11
70.3749
 21
39.2409
 31
0.0
  0
LINE
  8
0
 62
     0
 10
70.3749
 20
39.2409
 30
0.0
 11
63.6252
 21
39.2409
 31
0.0
  0
LINE
  8
0
 62
     0
 10
63.6252
 20
39.2409
 30
0.0
 11
63.6252
 21
36.0109
 31
0.0
  0
LINE
  8
0
 62
     0
 10
63.6252
 20
36.0109
 30
0.0
 11
62.0998
 21
36.0109
 31
0.0
  0
LINE
  8
0
 62
     0
 10
62.0998
 20
36.0109
 30
0.0
 11
62.0998
 21
40.7113
 31
0.0
  0
LINE
  8
0
 62
     0
 10
62.0998
 20
40.7113
 30
0.0
 11
48.1005
 21
40.7113
 31
0.0
  0
LINE
  8
0
 62
     0
 10
286.226
 20
40.7113
 30
0.0
 11
286.226
 21
36.0109
 31
0.0
  0
LINE
  8
0
 62
     0
 10
286.226
 20
36.0109
 30
0.0
 11
284.7
 21
36.0109
 31
0.0
  0
LINE
  8
0
 62
     0
 10
284.7
 20
36.0109
 30
0.0
 11
284.7
 21
39.2409
 31
0.0
  0
LINE
  8
0
 62
     0
 10
284.7
 20
39.2409
 30
0.0
 11
277.95
 21
39.2409
 31
0.0
  0
LINE
  8
0
 62
     0
 10
277.95
 20
39.2409
 30
0.0
 11
277.95
 21
36.0109
 31
0.0
  0
LINE
  8
0
 62
     0
 10
277.95
 20
36.0109
 30
0.0
 11
277.125
 21
36.0109
 31
0.0
  0
LINE
  8
0
 62
     0
 10
277.125
 20
36.0109
 30
0.0
 11
277.125
 21
33.2107
 31
0.0
  0
LINE
  8
0
 62
     0
 10
277.125
 20
33.2107
 30
0.0
 11
277.95
 21
33.2107
 31
0.0
  0
LINE
  8
0
 62
     0
 10
277.95
 20
33.2107
 30
0.0
 11
277.95
 21
26.9407
 31
0.0
  0
LINE
  8
0
 62
     0
 10
277.95
 20
26.9407
 30
0.0
 11
279.676
 21
26.9407
 31
0.0
  0
LINE
  8
0
 62
     0
 10
279.676
 20
26.9407
 30
0.0
 11
279.676
 21
25.7418
 31
0.0
  0
LINE
  8
0
 62
     0
 10
279.676
 20
25.7418
 30
0.0
 11
282.976
 21
25.7418
 31
0.0
  0
LINE
  8
0
 62
     0
 10
282.976
 20
25.7418
 30
0.0
 11
282.976
 21
26.9407
 31
0.0
  0
LINE
  8
0
 62
     0
 10
282.976
 20
26.9407
 30
0.0
 11
284.7
 21
26.9407
 31
0.0
  0
LINE
  8
0
 62
     0
 10
284.7
 20
26.9407
 30
0.0
 11
284.7
 21
31.411
 31
0.0
  0
LINE
  8
0
 62
     0
 10
284.7
 20
31.411
 30
0.0
 11
286.226
 21
31.411
 31
0.0
  0
LINE
  8
0
 62
     0
 10
286.226
 20
31.411
 30
0.0
 11
286.226
 21
26.7105
 31
0.0
  0
LINE
  8
0
 62
     0
 10
286.226
 20
26.7105
 30
0.0
 11
300.225
 21
26.7105
 31
0.0
  0
LINE
  8
0
 62
     0
 10
300.225
 20
26.7105
 30
0.0
 11
300.225
 21
31.411
 31
0.0
  0
LINE
  8
0
 62
     0
 10
300.225
 20
31.411
 30
0.0
 11
301.75
 21
31.411
 31
0.0
  0
LINE
  8
0
 62
     0
 10
301.75
 20
31.411
 30
0.0
 11
301.75
 21
26.9407
 31
0.0
  0
LINE
  8
0
 62
     0
 10
301.75
 20
26.9407
 30
0.0
 11
303.476
 21
26.9407
 31
0.0
  0
LINE
  8
0
 62
     0
 10
303.476
 20
26.9407
 30
0.0
 11
303.476
 21
25.7418
 31
0.0
  0
LINE
  8
0
 62
     0
 10
303.476
 20
25.7418
 30
0.0
 11
306.776
 21
25.7418
 31
0.0
  0
LINE
  8
0
 62
     0
 10
306.776
 20
25.7418
 30
0.0
 11
306.776
 21
26.9407
 31
0.0
  0
LINE
  8
0
 62
     0
 10
306.776
 20
26.9407
 30
0.0
 11
308.5
 21
26.9407
 31
0.0
  0
LINE
  8
0
 62
     0
 10
308.5
 20
26.9407
 30
0.0
 11
308.5
 21
33.2107
 31
0.0
  0
LINE
  8
0
 62
     0
 10
308.5
 20
33.2107
 30
0.0
 11
309.325
 21
33.2107
 31
0.0
  0
LINE
  8
0
 62
     0
 10
309.325
 20
33.2107
 30
0.0
 11
309.325
 21
36.0109
 31
0.0
  0
LINE
  8
0
 62
     0
 10
309.325
 20
36.0109
 30
0.0
 11
308.5
 21
36.0109
 31
0.0
  0
LINE
  8
0
 62
     0
 10
308.5
 20
36.0109
 30
0.0
 11
308.5
 21
39.2409
 31
0.0
  0
LINE
  8
0
 62
     0
 10
308.5
 20
39.2409
 30
0.0
 11
301.75
 21
39.2409
 31
0.0
  0
LINE
  8
0
 62
     0
 10
301.75
 20
39.2409
 30
0.0
 11
301.75
 21
36.0109
 31
0.0
  0
LINE
  8
0
 62
     0
 10
301.75
 20
36.0109
 30
0.0
 11
300.225
 21
36.0109
 31
0.0
  0
LINE
  8
0
 62
     0
 10
300.225
 20
36.0109
 30
0.0
 11
300.225
 21
40.7113
 31
0.0
  0
LINE
  8
0
 62
     0
 10
300.225
 20
40.7113
 30
0.0
 11
286.226
 21
40.7113
 31
0.0
  0
LINE
  8
0
 62
     0
 10
7.61919
 20
40.7113
 30
0.0
 11
21.6201
 21
40.7113
 31
0.0
  0
LINE
  8
0
 62
     0
 10
21.6201
 20
40.7113
 30
0.0
 11
21.6201
 21
26.7105
 31
0.0
  0
LINE
  8
0
 62
     0
 10
21.6201
 20
26.7105
 30
0.0
 11
7.61919
 21
26.7105
 31
0.0
  0
LINE
  8
0
 62
     0
 10
7.61919
 20
26.7105
 30
0.0
 11
7.61919
 21
40.7113
 31
0.0
  0
LINE
  8
0
 62
     0
 10
79.0568
 20
40.7113
 30
0.0
 11
93.0561
 21
40.7113
 31
0.0
  0
LINE
  8
0
 62
     0
 10
93.0561
 20
40.7113
 30
0.0
 11
93.0561
 21
26.7105
 31
0.0
  0
LINE
  8
0
 62
     0
 10
93.0561
 20
26.7105
 30
0.0
 11
79.0568
 21
26.7105
 31
0.0
  0
LINE
  8
0
 62
     0
 10
79.0568
 20
26.7105
 30
0.0
 11
79.0568
 21
40.7113
 31
0.0
  0
LINE
  8
0
 62
     0
 10
98.1068
 20
40.7113
 30
0.0
 11
112.106
 21
40.7113
 31
0.0
  0
LINE
  8
0
 62
     0
 10
112.106
 20
40.7113
 30
0.0
 11
112.106
 21
26.7105
 31
0.0
  0
LINE
  8
0
 62
     0
 10
112.106
 20
26.7105
 30
0.0
 11
98.1068
 21
26.7105
 31
0.0
  0
LINE
  8
0
 62
     0
 10
98.1068
 20
26.7105
 30
0.0
 11
98.1068
 21
40.7113
 31
0.0
  0
LINE
  8
0
 62
     0
 10
117.157
 20
40.7113
 30
0.0
 11
131.156
 21
40.7113
 31
0.0
  0
LINE
  8
0
 62
     0
 10
131.156
 20
40.7113
 30
0.0
 11
131.156
 21
26.7105
 31
0.0
  0
LINE
  8
0
 62
     0
 10
131.156
 20
26.7105
 30
0.0
 11
117.157
 21
26.7105
 31
0.0
  0
LINE
  8
0
 62
     0
 10
117.157
 20
26.7105
 30
0.0
 11
117.157
 21
40.7113
 31
0.0
  0
LINE
  8
0
 62
     0
 10
136.207
 20
40.7113
 30
0.0
 11
150.206
 21
40.7113
 31
0.0
  0
LINE
  8
0
 62
     0
 10
150.206
 20
40.7113
 30
0.0
 11
150.206
 21
26.7105
 31
0.0
  0
LINE
  8
0
 62
     0
 10
150.206
 20
26.7105
 30
0.0
 11
136.207
 21
26.7105
 31
0.0
  0
LINE
  8
0
 62
     0
 10
136.207
 20
26.7105
 30
0.0
 11
136.207
 21
40.7113
 31
0.0
  0
LINE
  8
0
 62
     0
 10
155.257
 20
40.7113
 30
0.0
 11
169.256
 21
40.7113
 31
0.0
  0
LINE
  8
0
 62
     0
 10
169.256
 20
40.7113
 30
0.0
 11
169.256
 21
26.7105
 31
0.0
  0
LINE
  8
0
 62
     0
 10
169.256
 20
26.7105
 30
0.0
 11
155.257
 21
26.7105
 31
0.0
  0
LINE
  8
0
 62
     0
 10
155.257
 20
26.7105
 30
0.0
 11
155.257
 21
40.7113
 31
0.0
  0
LINE
  8
0
 62
     0
 10
174.307
 20
40.7113
 30
0.0
 11
188.306
 21
40.7113
 31
0.0
  0
LINE
  8
0
 62
     0
 10
188.306
 20
40.7113
 30
0.0
 11
188.306
 21
26.7105
 31
0.0
  0
LINE
  8
0
 62
     0
 10
188.306
 20
26.7105
 30
0.0
 11
174.307
 21
26.7105
 31
0.0
  0
LINE
  8
0
 62
     0
 10
174.307
 20
26.7105
 30
0.0
 11
174.307
 21
40.7113
 31
0.0
  0
LINE
  8
0
 62
     0
 10
193.357
 20
40.7113
 30
0.0
 11
207.356
 21
40.7113
 31
0.0
  0
LINE
  8
0
 62
     0
 10
207.356
 20
40.7113
 30
0.0
 11
207.356
 21
26.7105
 31
0.0
  0
LINE
  8
0
 62
     0
 10
207.356
 20
26.7105
 30
0.0
 11
193.357
 21
26.7105
 31
0.0
  0
LINE
  8
0
 62
     0
 10
193.357
 20
26.7105
 30
0.0
 11
193.357
 21
40.7113
 31
0.0
  0
LINE
  8
0
 62
     0
 10
212.407
 20
40.7113
 30
0.0
 11
226.406
 21
40.7113
 31
0.0
  0
LINE
  8
0
 62
     0
 10
226.406
 20
40.7113
 30
0.0
 11
226.406
 21
26.7105
 31
0.0
  0
LINE
  8
0
 62
     0
 10
226.406
 20
26.7105
 30
0.0
 11
212.407
 21
26.7105
 31
0.0
  0
LINE
  8
0
 62
     0
 10
212.407
 20
26.7105
 30
0.0
 11
212.407
 21
40.7113
 31
0.0
  0
LINE
  8
0
 62
     0
 10
231.457
 20
40.7113
 30
0.0
 11
245.456
 21
40.7113
 31
0.0
  0
LINE
  8
0
 62
     0
 10
245.456
 20
40.7113
 30
0.0
 11
245.456
 21
26.7105
 31
0.0
  0
LINE
  8
0
 62
     0
 10
245.456
 20
26.7105
 30
0.0
 11
231.457
 21
26.7105
 31
0.0
  0
LINE
  8
0
 62
     0
 10
231.457
 20
26.7105
 30
0.0
 11
231.457
 21
40.7113
 31
0.0
  0
LINE
  8
0
 62
     0
 10
250.507
 20
40.7113
 30
0.0
 11
264.506
 21
40.7113
 31
0.0
  0
LINE
  8
0
 62
     0
 10
264.506
 20
40.7113
 30
0.0
 11
264.506
 21
26.7105
 31
0.0
  0
LINE
  8
0
 62
     0
 10
264.506
 20
26.7105
 30
0.0
 11
250.507
 21
26.7105
 31
0.0
  0
LINE
  8
0
 62
     0
 10
250.507
 20
26.7105
 30
0.0
 11
250.507
 21
40.7113
 31
0.0
  0
LINE
  8
0
 62
     0
 10
331.469
 20
40.7113
 30
0.0
 11
345.47
 21
40.7113
 31
0.0
  0
LINE
  8
0
 62
     0
 10
345.47
 20
40.7113
 30
0.0
 11
345.47
 21
26.7105
 31
0.0
  0
LINE
  8
0
 62
     0
 10
345.47
 20
26.7105
 30
0.0
 11
331.469
 21
26.7105
 31
0.0
  0
LINE
  8
0
 62
     0
 10
331.469
 20
26.7105
 30
0.0
 11
331.469
 21
40.7113
 31
0.0
  0
LINE
  8
0
 62
     0
 10
350.519
 20
40.7113
 30
0.0
 11
364.522
 21
40.7113
 31
0.0
  0
LINE
  8
0
 62
     0
 10
364.522
 20
40.7113
 30
0.0
 11
364.522
 21
26.7105
 31
0.0
  0
LINE
  8
0
 62
     0
 10
364.522
 20
26.7105
 30
0.0
 11
350.519
 21
26.7105
 31
0.0
  0
LINE
  8
0
 62
     0
 10
350.519
 20
26.7105
 30
0.0
 11
350.519
 21
40.7113
 31
0.0
  0
LINE
  8
0
 62
     0
 10
369.57
 20
40.7113
 30
0.0
 11
383.572
 21
40.7113
 31
0.0
  0
LINE
  8
0
 62
     0
 10
383.572
 20
40.7113
 30
0.0
 11
383.572
 21
26.7105
 31
0.0
  0
LINE
  8
0
 62
     0
 10
383.572
 20
26.7105
 30
0.0
 11
369.57
 21
26.7105
 31
0.0
  0
LINE
  8
0
 62
     0
 10
369.57
 20
26.7105
 30
0.0
 11
369.57
 21
40.7113
 31
0.0
  0
LINE
  8
0
 62
     0
 10
290.988
 20
59.7613
 30
0.0
 11
290.988
 21
55.0609
 31
0.0
  0
LINE
  8
0
 62
     0
 10
290.988
 20
55.0609
 30
0.0
 11
289.462
 21
55.0609
 31
0.0
  0
LINE
  8
0
 62
     0
 10
289.462
 20
55.0609
 30
0.0
 11
289.462
 21
58.2909
 31
0.0
  0
LINE
  8
0
 62
     0
 10
289.462
 20
58.2909
 30
0.0
 11
282.713
 21
58.2909
 31
0.0
  0
LINE
  8
0
 62
     0
 10
282.713
 20
58.2909
 30
0.0
 11
282.713
 21
55.0609
 31
0.0
  0
LINE
  8
0
 62
     0
 10
282.713
 20
55.0609
 30
0.0
 11
281.887
 21
55.0609
 31
0.0
  0
LINE
  8
0
 62
     0
 10
281.887
 20
55.0609
 30
0.0
 11
281.887
 21
52.2609
 31
0.0
  0
LINE
  8
0
 62
     0
 10
281.887
 20
52.2609
 30
0.0
 11
282.713
 21
52.2609
 31
0.0
  0
LINE
  8
0
 62
     0
 10
282.713
 20
52.2609
 30
0.0
 11
282.713
 21
45.992
 31
0.0
  0
LINE
  8
0
 62
     0
 10
282.713
 20
45.992
 30
0.0
 11
284.438
 21
45.992
 31
0.0
  0
LINE
  8
0
 62
     0
 10
284.438
 20
45.992
 30
0.0
 11
284.438
 21
44.7918
 31
0.0
  0
LINE
  8
0
 62
     0
 10
284.438
 20
44.7918
 30
0.0
 11
287.737
 21
44.7918
 31
0.0
  0
LINE
  8
0
 62
     0
 10
287.737
 20
44.7918
 30
0.0
 11
287.737
 21
45.992
 31
0.0
  0
LINE
  8
0
 62
     0
 10
287.737
 20
45.992
 30
0.0
 11
289.462
 21
45.992
 31
0.0
  0
LINE
  8
0
 62
     0
 10
289.462
 20
45.992
 30
0.0
 11
289.462
 21
50.461
 31
0.0
  0
LINE
  8
0
 62
     0
 10
289.462
 20
50.461
 30
0.0
 11
290.988
 21
50.461
 31
0.0
  0
LINE
  8
0
 62
     0
 10
290.988
 20
50.461
 30
0.0
 11
290.988
 21
45.7606
 31
0.0
  0
LINE
  8
0
 62
     0
 10
290.988
 20
45.7606
 30
0.0
 11
304.987
 21
45.7606
 31
0.0
  0
LINE
  8
0
 62
     0
 10
304.987
 20
45.7606
 30
0.0
 11
304.987
 21
50.461
 31
0.0
  0
LINE
  8
0
 62
     0
 10
304.987
 20
50.461
 30
0.0
 11
306.513
 21
50.461
 31
0.0
  0
LINE
  8
0
 62
     0
 10
306.513
 20
50.461
 30
0.0
 11
306.513
 21
45.992
 31
0.0
  0
LINE
  8
0
 62
     0
 10
306.513
 20
45.992
 30
0.0
 11
308.237
 21
45.992
 31
0.0
  0
LINE
  8
0
 62
     0
 10
308.237
 20
45.992
 30
0.0
 11
308.237
 21
44.7918
 31
0.0
  0
LINE
  8
0
 62
     0
 10
308.237
 20
44.7918
 30
0.0
 11
311.537
 21
44.7918
 31
0.0
  0
LINE
  8
0
 62
     0
 10
311.537
 20
44.7918
 30
0.0
 11
311.537
 21
45.992
 31
0.0
  0
LINE
  8
0
 62
     0
 10
311.537
 20
45.992
 30
0.0
 11
313.262
 21
45.992
 31
0.0
  0
LINE
  8
0
 62
     0
 10
313.262
 20
45.992
 30
0.0
 11
313.262
 21
52.2609
 31
0.0
  0
LINE
  8
0
 62
     0
 10
313.262
 20
52.2609
 30
0.0
 11
314.088
 21
52.2609
 31
0.0
  0
LINE
  8
0
 62
     0
 10
314.088
 20
52.2609
 30
0.0
 11
314.088
 21
55.0609
 31
0.0
  0
LINE
  8
0
 62
     0
 10
314.088
 20
55.0609
 30
0.0
 11
313.262
 21
55.0609
 31
0.0
  0
LINE
  8
0
 62
     0
 10
313.262
 20
55.0609
 30
0.0
 11
313.262
 21
58.2909
 31
0.0
  0
LINE
  8
0
 62
     0
 10
313.262
 20
58.2909
 30
0.0
 11
306.513
 21
58.2909
 31
0.0
  0
LINE
  8
0
 62
     0
 10
306.513
 20
58.2909
 30
0.0
 11
306.513
 21
55.0609
 31
0.0
  0
LINE
  8
0
 62
     0
 10
306.513
 20
55.0609
 30
0.0
 11
304.987
 21
55.0609
 31
0.0
  0
LINE
  8
0
 62
     0
 10
304.987
 20
55.0609
 30
0.0
 11
304.987
 21
59.7613
 31
0.0
  0
LINE
  8
0
 62
     0
 10
304.987
 20
59.7613
 30
0.0
 11
290.988
 21
59.7613
 31
0.0
  0
LINE
  8
0
 62
     0
 10
7.61919
 20
59.7613
 30
0.0
 11
21.6201
 21
59.7613
 31
0.0
  0
LINE
  8
0
 62
     0
 10
21.6201
 20
59.7613
 30
0.0
 11
21.6201
 21
45.7606
 31
0.0
  0
LINE
  8
0
 62
     0
 10
21.6201
 20
45.7606
 30
0.0
 11
7.61919
 21
45.7606
 31
0.0
  0
LINE
  8
0
 62
     0
 10
7.61919
 20
45.7606
 30
0.0
 11
7.61919
 21
59.7613
 31
0.0
  0
LINE
  8
0
 62
     0
 10
43.338
 20
59.7613
 30
0.0
 11
57.3373
 21
59.7613
 31
0.0
  0
LINE
  8
0
 62
     0
 10
57.3373
 20
59.7613
 30
0.0
 11
57.3373
 21
45.7606
 31
0.0
  0
LINE
  8
0
 62
     0
 10
57.3373
 20
45.7606
 30
0.0
 11
43.338
 21
45.7606
 31
0.0
  0
LINE
  8
0
 62
     0
 10
43.338
 20
45.7606
 30
0.0
 11
43.338
 21
59.7613
 31
0.0
  0
LINE
  8
0
 62
     0
 10
69.5318
 20
59.7613
 30
0.0
 11
83.5311
 21
59.7613
 31
0.0
  0
LINE
  8
0
 62
     0
 10
83.5311
 20
59.7613
 30
0.0
 11
83.5311
 21
45.7606
 31
0.0
  0
LINE
  8
0
 62
     0
 10
83.5311
 20
45.7606
 30
0.0
 11
69.5318
 21
45.7606
 31
0.0
  0
LINE
  8
0
 62
     0
 10
69.5318
 20
45.7606
 30
0.0
 11
69.5318
 21
59.7613
 31
0.0
  0
LINE
  8
0
 62
     0
 10
88.5818
 20
59.7613
 30
0.0
 11
102.581
 21
59.7613
 31
0.0
  0
LINE
  8
0
 62
     0
 10
102.581
 20
59.7613
 30
0.0
 11
102.581
 21
45.7606
 31
0.0
  0
LINE
  8
0
 62
     0
 10
102.581
 20
45.7606
 30
0.0
 11
88.5818
 21
45.7606
 31
0.0
  0
LINE
  8
0
 62
     0
 10
88.5818
 20
45.7606
 30
0.0
 11
88.5818
 21
59.7613
 31
0.0
  0
LINE
  8
0
 62
     0
 10
107.632
 20
59.7613
 30
0.0
 11
121.631
 21
59.7613
 31
0.0
  0
LINE
  8
0
 62
     0
 10
121.631
 20
59.7613
 30
0.0
 11
121.631
 21
45.7606
 31
0.0
  0
LINE
  8
0
 62
     0
 10
121.631
 20
45.7606
 30
0.0
 11
107.632
 21
45.7606
 31
0.0
  0
LINE
  8
0
 62
     0
 10
107.632
 20
45.7606
 30
0.0
 11
107.632
 21
59.7613
 31
0.0
  0
LINE
  8
0
 62
     0
 10
126.682
 20
59.7613
 30
0.0
 11
140.681
 21
59.7613
 31
0.0
  0
LINE
  8
0
 62
     0
 10
140.681
 20
59.7613
 30
0.0
 11
140.681
 21
45.7606
 31
0.0
  0
LINE
  8
0
 62
     0
 10
140.681
 20
45.7606
 30
0.0
 11
126.682
 21
45.7606
 31
0.0
  0
LINE
  8
0
 62
     0
 10
126.682
 20
45.7606
 30
0.0
 11
126.682
 21
59.7613
 31
0.0
  0
LINE
  8
0
 62
     0
 10
145.732
 20
59.7613
 30
0.0
 11
159.731
 21
59.7613
 31
0.0
  0
LINE
  8
0
 62
     0
 10
159.731
 20
59.7613
 30
0.0
 11
159.731
 21
45.7606
 31
0.0
  0
LINE
  8
0
 62
     0
 10
159.731
 20
45.7606
 30
0.0
 11
145.732
 21
45.7606
 31
0.0
  0
LINE
  8
0
 62
     0
 10
145.732
 20
45.7606
 30
0.0
 11
145.732
 21
59.7613
 31
0.0
  0
LINE
  8
0
 62
     0
 10
164.782
 20
59.7613
 30
0.0
 11
178.781
 21
59.7613
 31
0.0
  0
LINE
  8
0
 62
     0
 10
178.781
 20
59.7613
 30
0.0
 11
178.781
 21
45.7606
 31
0.0
  0
LINE
  8
0
 62
     0
 10
178.781
 20
45.7606
 30
0.0
 11
164.782
 21
45.7606
 31
0.0
  0
LINE
  8
0
 62
     0
 10
164.782
 20
45.7606
 30
0.0
 11
164.782
 21
59.7613
 31
0.0
  0
LINE
  8
0
 62
     0
 10
183.832
 20
59.7613
 30
0.0
 11
197.831
 21
59.7613
 31
0.0
  0
LINE
  8
0
 62
     0
 10
197.831
 20
59.7613
 30
0.0
 11
197.831
 21
45.7606
 31
0.0
  0
LINE
  8
0
 62
     0
 10
197.831
 20
45.7606
 30
0.0
 11
183.832
 21
45.7606
 31
0.0
  0
LINE
  8
0
 62
     0
 10
183.832
 20
45.7606
 30
0.0
 11
183.832
 21
59.7613
 31
0.0
  0
LINE
  8
0
 62
     0
 10
202.882
 20
59.7613
 30
0.0
 11
216.881
 21
59.7613
 31
0.0
  0
LINE
  8
0
 62
     0
 10
216.881
 20
59.7613
 30
0.0
 11
216.881
 21
45.7606
 31
0.0
  0
LINE
  8
0
 62
     0
 10
216.881
 20
45.7606
 30
0.0
 11
202.882
 21
45.7606
 31
0.0
  0
LINE
  8
0
 62
     0
 10
202.882
 20
45.7606
 30
0.0
 11
202.882
 21
59.7613
 31
0.0
  0
LINE
  8
0
 62
     0
 10
221.932
 20
59.7613
 30
0.0
 11
235.931
 21
59.7613
 31
0.0
  0
LINE
  8
0
 62
     0
 10
235.931
 20
59.7613
 30
0.0
 11
235.931
 21
45.7606
 31
0.0
  0
LINE
  8
0
 62
     0
 10
235.931
 20
45.7606
 30
0.0
 11
221.932
 21
45.7606
 31
0.0
  0
LINE
  8
0
 62
     0
 10
221.932
 20
45.7606
 30
0.0
 11
221.932
 21
59.7613
 31
0.0
  0
LINE
  8
0
 62
     0
 10
240.982
 20
59.7613
 30
0.0
 11
254.981
 21
59.7613
 31
0.0
  0
LINE
  8
0
 62
     0
 10
254.981
 20
59.7613
 30
0.0
 11
254.981
 21
45.7606
 31
0.0
  0
LINE
  8
0
 62
     0
 10
254.981
 20
45.7606
 30
0.0
 11
240.982
 21
45.7606
 31
0.0
  0
LINE
  8
0
 62
     0
 10
240.982
 20
45.7606
 30
0.0
 11
240.982
 21
59.7613
 31
0.0
  0
LINE
  8
0
 62
     0
 10
260.032
 20
59.7613
 30
0.0
 11
274.031
 21
59.7613
 31
0.0
  0
LINE
  8
0
 62
     0
 10
274.031
 20
59.7613
 30
0.0
 11
274.031
 21
45.7606
 31
0.0
  0
LINE
  8
0
 62
     0
 10
274.031
 20
45.7606
 30
0.0
 11
260.032
 21
45.7606
 31
0.0
  0
LINE
  8
0
 62
     0
 10
260.032
 20
45.7606
 30
0.0
 11
260.032
 21
59.7613
 31
0.0
  0
LINE
  8
0
 62
     0
 10
331.469
 20
59.7613
 30
0.0
 11
345.47
 21
59.7613
 31
0.0
  0
LINE
  8
0
 62
     0
 10
345.47
 20
59.7613
 30
0.0
 11
345.47
 21
45.7606
 31
0.0
  0
LINE
  8
0
 62
     0
 10
345.47
 20
45.7606
 30
0.0
 11
331.469
 21
45.7606
 31
0.0
  0
LINE
  8
0
 62
     0
 10
331.469
 20
45.7606
 30
0.0
 11
331.469
 21
59.7613
 31
0.0
  0
LINE
  8
0
 62
     0
 10
350.519
 20
59.7613
 30
0.0
 11
364.522
 21
59.7613
 31
0.0
  0
LINE
  8
0
 62
     0
 10
364.522
 20
59.7613
 30
0.0
 11
364.522
 21
45.7606
 31
0.0
  0
LINE
  8
0
 62
     0
 10
364.522
 20
45.7606
 30
0.0
 11
350.519
 21
45.7606
 31
0.0
  0
LINE
  8
0
 62
     0
 10
350.519
 20
45.7606
 30
0.0
 11
350.519
 21
59.7613
 31
0.0
  0
LINE
  8
0
 62
     0
 10
369.57
 20
59.7613
 30
0.0
 11
383.572
 21
59.7613
 31
0.0
  0
LINE
  8
0
 62
     0
 10
383.572
 20
59.7613
 30
0.0
 11
383.572
 21
45.7606
 31
0.0
  0
LINE
  8
0
 62
     0
 10
383.572
 20
45.7606
 30
0.0
 11
369.57
 21
45.7606
 31
0.0
  0
LINE
  8
0
 62
     0
 10
369.57
 20
45.7606
 30
0.0
 11
369.57
 21
59.7613
 31
0.0
  0
LINE
  8
0
 62
     0
 10
7.61919
 20
78.8113
 30
0.0
 11
21.6201
 21
78.8113
 31
0.0
  0
LINE
  8
0
 62
     0
 10
21.6201
 20
78.8113
 30
0.0
 11
21.6201
 21
64.8106
 31
0.0
  0
LINE
  8
0
 62
     0
 10
21.6201
 20
64.8106
 30
0.0
 11
7.61919
 21
64.8106
 31
0.0
  0
LINE
  8
0
 62
     0
 10
7.61919
 20
64.8106
 30
0.0
 11
7.61919
 21
78.8113
 31
0.0
  0
LINE
  8
0
 62
     0
 10
40.9568
 20
78.8113
 30
0.0
 11
54.9561
 21
78.8113
 31
0.0
  0
LINE
  8
0
 62
     0
 10
54.9561
 20
78.8113
 30
0.0
 11
54.9561
 21
64.8106
 31
0.0
  0
LINE
  8
0
 62
     0
 10
54.9561
 20
64.8106
 30
0.0
 11
40.9568
 21
64.8106
 31
0.0
  0
LINE
  8
0
 62
     0
 10
40.9568
 20
64.8106
 30
0.0
 11
40.9568
 21
78.8113
 31
0.0
  0
LINE
  8
0
 62
     0
 10
64.7693
 20
78.8113
 30
0.0
 11
78.77
 21
78.8113
 31
0.0
  0
LINE
  8
0
 62
     0
 10
78.77
 20
78.8113
 30
0.0
 11
78.77
 21
64.8106
 31
0.0
  0
LINE
  8
0
 62
     0
 10
78.77
 20
64.8106
 30
0.0
 11
64.7693
 21
64.8106
 31
0.0
  0
LINE
  8
0
 62
     0
 10
64.7693
 20
64.8106
 30
0.0
 11
64.7693
 21
78.8113
 31
0.0
  0
LINE
  8
0
 62
     0
 10
83.8193
 20
78.8113
 30
0.0
 11
97.82
 21
78.8113
 31
0.0
  0
LINE
  8
0
 62
     0
 10
97.82
 20
78.8113
 30
0.0
 11
97.82
 21
64.8106
 31
0.0
  0
LINE
  8
0
 62
     0
 10
97.82
 20
64.8106
 30
0.0
 11
83.8193
 21
64.8106
 31
0.0
  0
LINE
  8
0
 62
     0
 10
83.8193
 20
64.8106
 30
0.0
 11
83.8193
 21
78.8113
 31
0.0
  0
LINE
  8
0
 62
     0
 10
102.869
 20
78.8113
 30
0.0
 11
116.87
 21
78.8113
 31
0.0
  0
LINE
  8
0
 62
     0
 10
116.87
 20
78.8113
 30
0.0
 11
116.87
 21
64.8106
 31
0.0
  0
LINE
  8
0
 62
     0
 10
116.87
 20
64.8106
 30
0.0
 11
102.869
 21
64.8106
 31
0.0
  0
LINE
  8
0
 62
     0
 10
102.869
 20
64.8106
 30
0.0
 11
102.869
 21
78.8113
 31
0.0
  0
LINE
  8
0
 62
     0
 10
121.919
 20
78.8113
 30
0.0
 11
135.92
 21
78.8113
 31
0.0
  0
LINE
  8
0
 62
     0
 10
135.92
 20
78.8113
 30
0.0
 11
135.92
 21
64.8106
 31
0.0
  0
LINE
  8
0
 62
     0
 10
135.92
 20
64.8106
 30
0.0
 11
121.919
 21
64.8106
 31
0.0
  0
LINE
  8
0
 62
     0
 10
121.919
 20
64.8106
 30
0.0
 11
121.919
 21
78.8113
 31
0.0
  0
LINE
  8
0
 62
     0
 10
140.969
 20
78.8113
 30
0.0
 11
154.97
 21
78.8113
 31
0.0
  0
LINE
  8
0
 62
     0
 10
154.97
 20
78.8113
 30
0.0
 11
154.97
 21
64.8106
 31
0.0
  0
LINE
  8
0
 62
     0
 10
154.97
 20
64.8106
 30
0.0
 11
140.969
 21
64.8106
 31
0.0
  0
LINE
  8
0
 62
     0
 10
140.969
 20
64.8106
 30
0.0
 11
140.969
 21
78.8113
 31
0.0
  0
LINE
  8
0
 62
     0
 10
160.019
 20
78.8113
 30
0.0
 11
174.02
 21
78.8113
 31
0.0
  0
LINE
  8
0
 62
     0
 10
174.02
 20
78.8113
 30
0.0
 11
174.02
 21
64.8106
 31
0.0
  0
LINE
  8
0
 62
     0
 10
174.02
 20
64.8106
 30
0.0
 11
160.019
 21
64.8106
 31
0.0
  0
LINE
  8
0
 62
     0
 10
160.019
 20
64.8106
 30
0.0
 11
160.019
 21
78.8113
 31
0.0
  0
LINE
  8
0
 62
     0
 10
179.069
 20
78.8113
 30
0.0
 11
193.07
 21
78.8113
 31
0.0
  0
LINE
  8
0
 62
     0
 10
193.07
 20
78.8113
 30
0.0
 11
193.07
 21
64.8106
 31
0.0
  0
LINE
  8
0
 62
     0
 10
193.07
 20
64.8106
 30
0.0
 11
179.069
 21
64.8106
 31
0.0
  0
LINE
  8
0
 62
     0
 10
179.069
 20
64.8106
 30
0.0
 11
179.069
 21
78.8113
 31
0.0
  0
LINE
  8
0
 62
     0
 10
198.119
 20
78.8113
 30
0.0
 11
212.12
 21
78.8113
 31
0.0
  0
LINE
  8
0
 62
     0
 10
212.12
 20
78.8113
 30
0.0
 11
212.12
 21
64.8106
 31
0.0
  0
LINE
  8
0
 62
     0
 10
212.12
 20
64.8106
 30
0.0
 11
198.119
 21
64.8106
 31
0.0
  0
LINE
  8
0
 62
     0
 10
198.119
 20
64.8106
 30
0.0
 11
198.119
 21
78.8113
 31
0.0
  0
LINE
  8
0
 62
     0
 10
217.169
 20
78.8113
 30
0.0
 11
231.17
 21
78.8113
 31
0.0
  0
LINE
  8
0
 62
     0
 10
231.17
 20
78.8113
 30
0.0
 11
231.17
 21
64.8106
 31
0.0
  0
LINE
  8
0
 62
     0
 10
231.17
 20
64.8106
 30
0.0
 11
217.169
 21
64.8106
 31
0.0
  0
LINE
  8
0
 62
     0
 10
217.169
 20
64.8106
 30
0.0
 11
217.169
 21
78.8113
 31
0.0
  0
LINE
  8
0
 62
     0
 10
236.219
 20
78.8113
 30
0.0
 11
250.22
 21
78.8113
 31
0.0
  0
LINE
  8
0
 62
     0
 10
250.22
 20
78.8113
 30
0.0
 11
250.22
 21
64.8106
 31
0.0
  0
LINE
  8
0
 62
     0
 10
250.22
 20
64.8106
 30
0.0
 11
236.219
 21
64.8106
 31
0.0
  0
LINE
  8
0
 62
     0
 10
236.219
 20
64.8106
 30
0.0
 11
236.219
 21
78.8113
 31
0.0
  0
LINE
  8
0
 62
     0
 10
255.269
 20
78.8113
 30
0.0
 11
269.27
 21
78.8113
 31
0.0
  0
LINE
  8
0
 62
     0
 10
269.27
 20
78.8113
 30
0.0
 11
269.27
 21
64.8106
 31
0.0
  0
LINE
  8
0
 62
     0
 10
269.27
 20
64.8106
 30
0.0
 11
255.269
 21
64.8106
 31
0.0
  0
LINE
  8
0
 62
     0
 10
255.269
 20
64.8106
 30
0.0
 11
255.269
 21
78.8113
 31
0.0
  0
LINE
  8
0
 62
     0
 10
274.319
 20
78.8113
 30
0.0
 11
288.32
 21
78.8113
 31
0.0
  0
LINE
  8
0
 62
     0
 10
288.32
 20
78.8113
 30
0.0
 11
288.32
 21
64.8106
 31
0.0
  0
LINE
  8
0
 62
     0
 10
288.32
 20
64.8106
 30
0.0
 11
274.319
 21
64.8106
 31
0.0
  0
LINE
  8
0
 62
     0
 10
274.319
 20
64.8106
 30
0.0
 11
274.319
 21
78.8113
 31
0.0
  0
LINE
  8
0
 62
     0
 10
298.132
 20
78.8113
 30
0.0
 11
312.131
 21
78.8113
 31
0.0
  0
LINE
  8
0
 62
     0
 10
312.131
 20
78.8113
 30
0.0
 11
312.131
 21
64.8106
 31
0.0
  0
LINE
  8
0
 62
     0
 10
312.131
 20
64.8106
 30
0.0
 11
298.132
 21
64.8106
 31
0.0
  0
LINE
  8
0
 62
     0
 10
298.132
 20
64.8106
 30
0.0
 11
298.132
 21
78.8113
 31
0.0
  0
LINE
  8
0
 62
     0
 10
331.469
 20
78.8113
 30
0.0
 11
345.47
 21
78.8113
 31
0.0
  0
LINE
  8
0
 62
     0
 10
345.47
 20
78.8113
 30
0.0
 11
345.47
 21
64.8106
 31
0.0
  0
LINE
  8
0
 62
     0
 10
345.47
 20
64.8106
 30
0.0
 11
331.469
 21
64.8106
 31
0.0
  0
LINE
  8
0
 62
     0
 10
331.469
 20
64.8106
 30
0.0
 11
331.469
 21
78.8113
 31
0.0
  0
LINE
  8
0
 62
     0
 10
350.519
 20
78.8113
 30
0.0
 11
364.522
 21
78.8113
 31
0.0
  0
LINE
  8
0
 62
     0
 10
364.522
 20
78.8113
 30
0.0
 11
364.522
 21
64.8106
 31
0.0
  0
LINE
  8
0
 62
     0
 10
364.522
 20
64.8106
 30
0.0
 11
350.519
 21
64.8106
 31
0.0
  0
LINE
  8
0
 62
     0
 10
350.519
 20
64.8106
 30
0.0
 11
350.519
 21
78.8113
 31
0.0
  0
LINE
  8
0
 62
     0
 10
369.57
 20
78.8113
 30
0.0
 11
383.572
 21
78.8113
 31
0.0
  0
LINE
  8
0
 62
     0
 10
383.572
 20
78.8113
 30
0.0
 11
383.572
 21
64.8106
 31
0.0
  0
LINE
  8
0
 62
     0
 10
383.572
 20
64.8106
 30
0.0
 11
369.57
 21
64.8106
 31
0.0
  0
LINE
  8
0
 62
     0
 10
369.57
 20
64.8106
 30
0.0
 11
369.57
 21
78.8113
 31
0.0
  0
LINE
  8
0
 62
     0
 10
293.369
 20
97.8613
 30
0.0
 11
293.369
 21
93.1623
 31
0.0
  0
LINE
  8
0
 62
     0
 10
293.369
 20
93.1623
 30
0.0
 11
291.845
 21
93.1623
 31
0.0
  0
LINE
  8
0
 62
     0
 10
291.845
 20
93.1623
 30
0.0
 11
291.845
 21
96.3923
 31
0.0
  0
LINE
  8
0
 62
     0
 10
291.845
 20
96.3923
 30
0.0
 11
285.094
 21
96.3923
 31
0.0
  0
LINE
  8
0
 62
     0
 10
285.094
 20
96.3923
 30
0.0
 11
285.094
 21
93.1623
 31
0.0
  0
LINE
  8
0
 62
     0
 10
285.094
 20
93.1623
 30
0.0
 11
284.27
 21
93.1623
 31
0.0
  0
LINE
  8
0
 62
     0
 10
284.27
 20
93.1623
 30
0.0
 11
284.27
 21
90.3609
 31
0.0
  0
LINE
  8
0
 62
     0
 10
284.27
 20
90.3609
 30
0.0
 11
285.094
 21
90.3609
 31
0.0
  0
LINE
  8
0
 62
     0
 10
285.094
 20
90.3609
 30
0.0
 11
285.094
 21
84.092
 31
0.0
  0
LINE
  8
0
 62
     0
 10
285.094
 20
84.092
 30
0.0
 11
286.819
 21
84.092
 31
0.0
  0
LINE
  8
0
 62
     0
 10
286.819
 20
84.092
 30
0.0
 11
286.819
 21
82.8918
 31
0.0
  0
LINE
  8
0
 62
     0
 10
286.819
 20
82.8918
 30
0.0
 11
290.12
 21
82.8918
 31
0.0
  0
LINE
  8
0
 62
     0
 10
290.12
 20
82.8918
 30
0.0
 11
290.12
 21
84.092
 31
0.0
  0
LINE
  8
0
 62
     0
 10
290.12
 20
84.092
 30
0.0
 11
291.845
 21
84.092
 31
0.0
  0
LINE
  8
0
 62
     0
 10
291.845
 20
84.092
 30
0.0
 11
291.845
 21
88.561
 31
0.0
  0
LINE
  8
0
 62
     0
 10
291.845
 20
88.561
 30
0.0
 11
293.369
 21
88.561
 31
0.0
  0
LINE
  8
0
 62
     0
 10
293.369
 20
88.561
 30
0.0
 11
293.369
 21
83.8606
 31
0.0
  0
LINE
  8
0
 62
     0
 10
293.369
 20
83.8606
 30
0.0
 11
307.37
 21
83.8606
 31
0.0
  0
LINE
  8
0
 62
     0
 10
307.37
 20
83.8606
 30
0.0
 11
307.37
 21
88.561
 31
0.0
  0
LINE
  8
0
 62
     0
 10
307.37
 20
88.561
 30
0.0
 11
308.894
 21
88.561
 31
0.0
  0
LINE
  8
0
 62
     0
 10
308.894
 20
88.561
 30
0.0
 11
308.894
 21
84.092
 31
0.0
  0
LINE
  8
0
 62
     0
 10
308.894
 20
84.092
 30
0.0
 11
310.619
 21
84.092
 31
0.0
  0
LINE
  8
0
 62
     0
 10
310.619
 20
84.092
 30
0.0
 11
310.619
 21
82.8918
 31
0.0
  0
LINE
  8
0
 62
     0
 10
310.619
 20
82.8918
 30
0.0
 11
313.92
 21
82.8918
 31
0.0
  0
LINE
  8
0
 62
     0
 10
313.92
 20
82.8918
 30
0.0
 11
313.92
 21
84.092
 31
0.0
  0
LINE
  8
0
 62
     0
 10
313.92
 20
84.092
 30
0.0
 11
315.645
 21
84.092
 31
0.0
  0
LINE
  8
0
 62
     0
 10
315.645
 20
84.092
 30
0.0
 11
315.645
 21
90.3609
 31
0.0
  0
LINE
  8
0
 62
     0
 10
315.645
 20
90.3609
 30
0.0
 11
316.469
 21
90.3609
 31
0.0
  0
LINE
  8
0
 62
     0
 10
316.469
 20
90.3609
 30
0.0
 11
316.469
 21
93.1623
 31
0.0
  0
LINE
  8
0
 62
     0
 10
316.469
 20
93.1623
 30
0.0
 11
315.645
 21
93.1623
 31
0.0
  0
LINE
  8
0
 62
     0
 10
315.645
 20
93.1623
 30
0.0
 11
315.645
 21
96.3923
 31
0.0
  0
LINE
  8
0
 62
     0
 10
315.645
 20
96.3923
 30
0.0
 11
308.894
 21
96.3923
 31
0.0
  0
LINE
  8
0
 62
     0
 10
308.894
 20
96.3923
 30
0.0
 11
308.894
 21
93.1623
 31
0.0
  0
LINE
  8
0
 62
     0
 10
308.894
 20
93.1623
 30
0.0
 11
307.37
 21
93.1623
 31
0.0
  0
LINE
  8
0
 62
     0
 10
307.37
 20
93.1623
 30
0.0
 11
307.37
 21
97.8613
 31
0.0
  0
LINE
  8
0
 62
     0
 10
307.37
 20
97.8613
 30
0.0
 11
293.369
 21
97.8613
 31
0.0
  0
LINE
  8
0
 62
     0
 10
7.61919
 20
97.8613
 30
0.0
 11
21.6201
 21
97.8613
 31
0.0
  0
LINE
  8
0
 62
     0
 10
21.6201
 20
97.8613
 30
0.0
 11
21.6201
 21
83.8606
 31
0.0
  0
LINE
  8
0
 62
     0
 10
21.6201
 20
83.8606
 30
0.0
 11
7.61919
 21
83.8606
 31
0.0
  0
LINE
  8
0
 62
     0
 10
7.61919
 20
83.8606
 30
0.0
 11
7.61919
 21
97.8613
 31
0.0
  0
LINE
  8
0
 62
     0
 10
36.1943
 20
97.8613
 30
0.0
 11
50.195
 21
97.8613
 31
0.0
  0
LINE
  8
0
 62
     0
 10
50.195
 20
97.8613
 30
0.0
 11
50.195
 21
83.8606
 31
0.0
  0
LINE
  8
0
 62
     0
 10
50.195
 20
83.8606
 30
0.0
 11
36.1943
 21
83.8606
 31
0.0
  0
LINE
  8
0
 62
     0
 10
36.1943
 20
83.8606
 30
0.0
 11
36.1943
 21
97.8613
 31
0.0
  0
LINE
  8
0
 62
     0
 10
55.2443
 20
97.8613
 30
0.0
 11
69.245
 21
97.8613
 31
0.0
  0
LINE
  8
0
 62
     0
 10
69.245
 20
97.8613
 30
0.0
 11
69.245
 21
83.8606
 31
0.0
  0
LINE
  8
0
 62
     0
 10
69.245
 20
83.8606
 30
0.0
 11
55.2443
 21
83.8606
 31
0.0
  0
LINE
  8
0
 62
     0
 10
55.2443
 20
83.8606
 30
0.0
 11
55.2443
 21
97.8613
 31
0.0
  0
LINE
  8
0
 62
     0
 10
74.2943
 20
97.8613
 30
0.0
 11
88.295
 21
97.8613
 31
0.0
  0
LINE
  8
0
 62
     0
 10
88.295
 20
97.8613
 30
0.0
 11
88.295
 21
83.8606
 31
0.0
  0
LINE
  8
0
 62
     0
 10
88.295
 20
83.8606
 30
0.0
 11
74.2943
 21
83.8606
 31
0.0
  0
LINE
  8
0
 62
     0
 10
74.2943
 20
83.8606
 30
0.0
 11
74.2943
 21
97.8613
 31
0.0
  0
LINE
  8
0
 62
     0
 10
93.3443
 20
97.8613
 30
0.0
 11
107.345
 21
97.8613
 31
0.0
  0
LINE
  8
0
 62
     0
 10
107.345
 20
97.8613
 30
0.0
 11
107.345
 21
83.8606
 31
0.0
  0
LINE
  8
0
 62
     0
 10
107.345
 20
83.8606
 30
0.0
 11
93.3443
 21
83.8606
 31
0.0
  0
LINE
  8
0
 62
     0
 10
93.3443
 20
83.8606
 30
0.0
 11
93.3443
 21
97.8613
 31
0.0
  0
LINE
  8
0
 62
     0
 10
112.394
 20
97.8613
 30
0.0
 11
126.395
 21
97.8613
 31
0.0
  0
LINE
  8
0
 62
     0
 10
126.395
 20
97.8613
 30
0.0
 11
126.395
 21
83.8606
 31
0.0
  0
LINE
  8
0
 62
     0
 10
126.395
 20
83.8606
 30
0.0
 11
112.394
 21
83.8606
 31
0.0
  0
LINE
  8
0
 62
     0
 10
112.394
 20
83.8606
 30
0.0
 11
112.394
 21
97.8613
 31
0.0
  0
LINE
  8
0
 62
     0
 10
131.444
 20
97.8613
 30
0.0
 11
145.445
 21
97.8613
 31
0.0
  0
LINE
  8
0
 62
     0
 10
145.445
 20
97.8613
 30
0.0
 11
145.445
 21
83.8606
 31
0.0
  0
LINE
  8
0
 62
     0
 10
145.445
 20
83.8606
 30
0.0
 11
131.444
 21
83.8606
 31
0.0
  0
LINE
  8
0
 62
     0
 10
131.444
 20
83.8606
 30
0.0
 11
131.444
 21
97.8613
 31
0.0
  0
LINE
  8
0
 62
     0
 10
150.494
 20
97.8613
 30
0.0
 11
164.495
 21
97.8613
 31
0.0
  0
LINE
  8
0
 62
     0
 10
164.495
 20
97.8613
 30
0.0
 11
164.495
 21
83.8606
 31
0.0
  0
LINE
  8
0
 62
     0
 10
164.495
 20
83.8606
 30
0.0
 11
150.494
 21
83.8606
 31
0.0
  0
LINE
  8
0
 62
     0
 10
150.494
 20
83.8606
 30
0.0
 11
150.494
 21
97.8613
 31
0.0
  0
LINE
  8
0
 62
     0
 10
169.544
 20
97.8613
 30
0.0
 11
183.545
 21
97.8613
 31
0.0
  0
LINE
  8
0
 62
     0
 10
183.545
 20
97.8613
 30
0.0
 11
183.545
 21
83.8606
 31
0.0
  0
LINE
  8
0
 62
     0
 10
183.545
 20
83.8606
 30
0.0
 11
169.544
 21
83.8606
 31
0.0
  0
LINE
  8
0
 62
     0
 10
169.544
 20
83.8606
 30
0.0
 11
169.544
 21
97.8613
 31
0.0
  0
LINE
  8
0
 62
     0
 10
188.594
 20
97.8613
 30
0.0
 11
202.595
 21
97.8613
 31
0.0
  0
LINE
  8
0
 62
     0
 10
202.595
 20
97.8613
 30
0.0
 11
202.595
 21
83.8606
 31
0.0
  0
LINE
  8
0
 62
     0
 10
202.595
 20
83.8606
 30
0.0
 11
188.594
 21
83.8606
 31
0.0
  0
LINE
  8
0
 62
     0
 10
188.594
 20
83.8606
 30
0.0
 11
188.594
 21
97.8613
 31
0.0
  0
LINE
  8
0
 62
     0
 10
207.644
 20
97.8613
 30
0.0
 11
221.645
 21
97.8613
 31
0.0
  0
LINE
  8
0
 62
     0
 10
221.645
 20
97.8613
 30
0.0
 11
221.645
 21
83.8606
 31
0.0
  0
LINE
  8
0
 62
     0
 10
221.645
 20
83.8606
 30
0.0
 11
207.644
 21
83.8606
 31
0.0
  0
LINE
  8
0
 62
     0
 10
207.644
 20
83.8606
 30
0.0
 11
207.644
 21
97.8613
 31
0.0
  0
LINE
  8
0
 62
     0
 10
226.694
 20
97.8613
 30
0.0
 11
240.695
 21
97.8613
 31
0.0
  0
LINE
  8
0
 62
     0
 10
240.695
 20
97.8613
 30
0.0
 11
240.695
 21
83.8606
 31
0.0
  0
LINE
  8
0
 62
     0
 10
240.695
 20
83.8606
 30
0.0
 11
226.694
 21
83.8606
 31
0.0
  0
LINE
  8
0
 62
     0
 10
226.694
 20
83.8606
 30
0.0
 11
226.694
 21
97.8613
 31
0.0
  0
LINE
  8
0
 62
     0
 10
245.744
 20
97.8613
 30
0.0
 11
259.745
 21
97.8613
 31
0.0
  0
LINE
  8
0
 62
     0
 10
259.745
 20
97.8613
 30
0.0
 11
259.745
 21
83.8606
 31
0.0
  0
LINE
  8
0
 62
     0
 10
259.745
 20
83.8606
 30
0.0
 11
245.744
 21
83.8606
 31
0.0
  0
LINE
  8
0
 62
     0
 10
245.744
 20
83.8606
 30
0.0
 11
245.744
 21
97.8613
 31
0.0
  0
LINE
  8
0
 62
     0
 10
264.794
 20
97.8613
 30
0.0
 11
278.795
 21
97.8613
 31
0.0
  0
LINE
  8
0
 62
     0
 10
278.795
 20
97.8613
 30
0.0
 11
278.795
 21
83.8606
 31
0.0
  0
LINE
  8
0
 62
     0
 10
278.795
 20
83.8606
 30
0.0
 11
264.794
 21
83.8606
 31
0.0
  0
LINE
  8
0
 62
     0
 10
264.794
 20
83.8606
 30
0.0
 11
264.794
 21
97.8613
 31
0.0
  0
LINE
  8
0
 62
     0
 10
331.469
 20
97.8613
 30
0.0
 11
345.47
 21
97.8613
 31
0.0
  0
LINE
  8
0
 62
     0
 10
345.47
 20
97.8613
 30
0.0
 11
345.47
 21
83.8606
 31
0.0
  0
LINE
  8
0
 62
     0
 10
345.47
 20
83.8606
 30
0.0
 11
331.469
 21
83.8606
 31
0.0
  0
LINE
  8
0
 62
     0
 10
331.469
 20
83.8606
 30
0.0
 11
331.469
 21
97.8613
 31
0.0
  0
LINE
  8
0
 62
     0
 10
350.519
 20
97.8613
 30
0.0
 11
364.522
 21
97.8613
 31
0.0
  0
LINE
  8
0
 62
     0
 10
364.522
 20
97.8613
 30
0.0
 11
364.522
 21
83.8606
 31
0.0
  0
LINE
  8
0
 62
     0
 10
364.522
 20
83.8606
 30
0.0
 11
350.519
 21
83.8606
 31
0.0
  0
LINE
  8
0
 62
     0
 10
350.519
 20
83.8606
 30
0.0
 11
350.519
 21
97.8613
 31
0.0
  0
LINE
  8
0
 62
     0
 10
369.57
 20
97.8613
 30
0.0
 11
383.572
 21
97.8613
 31
0.0
  0
LINE
  8
0
 62
     0
 10
383.572
 20
97.8613
 30
0.0
 11
383.572
 21
83.8606
 31
0.0
  0
LINE
  8
0
 62
     0
 10
383.572
 20
83.8606
 30
0.0
 11
369.57
 21
83.8606
 31
0.0
  0
LINE
  8
0
 62
     0
 10
369.57
 20
83.8606
 30
0.0
 11
369.57
 21
97.8613
 31
0.0
  0
LINE
  8
0
 62
     0
 10
130.517
 20
105.158
 30
0.0
 11
130.07
 21
104.931
 31
0.0
  0
LINE
  8
0
 62
     0
 10
130.07
 20
104.931
 30
0.0
 11
129.716
 21
104.577
 31
0.0
  0
LINE
  8
0
 62
     0
 10
129.716
 20
104.577
 30
0.0
 11
129.49
 21
104.132
 31
0.0
  0
LINE
  8
0
 62
     0
 10
129.49
 20
104.132
 30
0.0
 11
129.412
 21
103.637
 31
0.0
  0
LINE
  8
0
 62
     0
 10
129.412
 20
103.637
 30
0.0
 11
129.49
 21
103.142
 31
0.0
  0
LINE
  8
0
 62
     0
 10
129.49
 20
103.142
 30
0.0
 11
129.716
 21
102.695
 31
0.0
  0
LINE
  8
0
 62
     0
 10
129.716
 20
102.695
 30
0.0
 11
130.07
 21
102.342
 31
0.0
  0
LINE
  8
0
 62
     0
 10
130.07
 20
102.342
 30
0.0
 11
130.517
 21
102.115
 31
0.0
  0
LINE
  8
0
 62
     0
 10
130.517
 20
102.115
 30
0.0
 11
131.011
 21
102.035
 31
0.0
  0
LINE
  8
0
 62
     0
 10
131.011
 20
102.035
 30
0.0
 11
131.505
 21
102.115
 31
0.0
  0
LINE
  8
0
 62
     0
 10
131.505
 20
102.115
 30
0.0
 11
131.951
 21
102.342
 31
0.0
  0
LINE
  8
0
 62
     0
 10
131.951
 20
102.342
 30
0.0
 11
132.305
 21
102.695
 31
0.0
  0
LINE
  8
0
 62
     0
 10
132.305
 20
102.695
 30
0.0
 11
132.533
 21
103.142
 31
0.0
  0
LINE
  8
0
 62
     0
 10
132.533
 20
103.142
 30
0.0
 11
132.611
 21
103.637
 31
0.0
  0
LINE
  8
0
 62
     0
 10
132.611
 20
103.637
 30
0.0
 11
132.533
 21
104.132
 31
0.0
  0
LINE
  8
0
 62
     0
 10
132.533
 20
104.132
 30
0.0
 11
132.305
 21
104.577
 31
0.0
  0
LINE
  8
0
 62
     0
 10
132.305
 20
104.577
 30
0.0
 11
131.951
 21
104.931
 31
0.0
  0
LINE
  8
0
 62
     0
 10
131.951
 20
104.931
 30
0.0
 11
131.505
 21
105.158
 31
0.0
  0
LINE
  8
0
 62
     0
 10
131.505
 20
105.158
 30
0.0
 11
131.011
 21
105.237
 31
0.0
  0
LINE
  8
0
 62
     0
 10
131.011
 20
105.237
 30
0.0
 11
130.517
 21
105.158
 31
0.0
  0
LINE
  8
0
 62
     0
 10
259.683
 20
105.158
 30
0.0
 11
259.238
 21
104.931
 31
0.0
  0
LINE
  8
0
 62
     0
 10
259.238
 20
104.931
 30
0.0
 11
258.884
 21
104.577
 31
0.0
  0
LINE
  8
0
 62
     0
 10
258.884
 20
104.577
 30
0.0
 11
258.656
 21
104.132
 31
0.0
  0
LINE
  8
0
 62
     0
 10
258.656
 20
104.132
 30
0.0
 11
258.578
 21
103.637
 31
0.0
  0
LINE
  8
0
 62
     0
 10
258.578
 20
103.637
 30
0.0
 11
258.656
 21
103.142
 31
0.0
  0
LINE
  8
0
 62
     0
 10
258.656
 20
103.142
 30
0.0
 11
258.884
 21
102.695
 31
0.0
  0
LINE
  8
0
 62
     0
 10
258.884
 20
102.695
 30
0.0
 11
259.238
 21
102.342
 31
0.0
  0
LINE
  8
0
 62
     0
 10
259.238
 20
102.342
 30
0.0
 11
259.683
 21
102.115
 31
0.0
  0
LINE
  8
0
 62
     0
 10
259.683
 20
102.115
 30
0.0
 11
260.179
 21
102.035
 31
0.0
  0
LINE
  8
0
 62
     0
 10
260.179
 20
102.035
 30
0.0
 11
260.672
 21
102.115
 31
0.0
  0
LINE
  8
0
 62
     0
 10
260.672
 20
102.115
 30
0.0
 11
261.119
 21
102.342
 31
0.0
  0
LINE
  8
0
 62
     0
 10
261.119
 20
102.342
 30
0.0
 11
261.473
 21
102.695
 31
0.0
  0
LINE
  8
0
 62
     0
 10
261.473
 20
102.695
 30
0.0
 11
261.699
 21
103.142
 31
0.0
  0
LINE
  8
0
 62
     0
 10
261.699
 20
103.142
 30
0.0
 11
261.779
 21
103.637
 31
0.0
  0
LINE
  8
0
 62
     0
 10
261.779
 20
103.637
 30
0.0
 11
261.699
 21
104.132
 31
0.0
  0
LINE
  8
0
 62
     0
 10
261.699
 20
104.132
 30
0.0
 11
261.473
 21
104.577
 31
0.0
  0
LINE
  8
0
 62
     0
 10
261.473
 20
104.577
 30
0.0
 11
261.119
 21
104.931
 31
0.0
  0
LINE
  8
0
 62
     0
 10
261.119
 20
104.931
 30
0.0
 11
260.672
 21
105.158
 31
0.0
  0
LINE
  8
0
 62
     0
 10
260.672
 20
105.158
 30
0.0
 11
260.179
 21
105.237
 31
0.0
  0
LINE
  8
0
 62
     0
 10
260.179
 20
105.237
 30
0.0
 11
259.683
 21
105.158
 31
0.0
  0
LINE
  8
0
 62
     0
 10
388.849
 20
105.158
 30
0.0
 11
388.405
 21
104.931
 31
0.0
  0
LINE
  8
0
 62
     0
 10
388.405
 20
104.931
 30
0.0
 11
388.048
 21
104.577
 31
0.0
  0
LINE
  8
0
 62
     0
 10
388.048
 20
104.577
 30
0.0
 11
387.823
 21
104.132
 31
0.0
  0
LINE
  8
0
 62
     0
 10
387.823
 20
104.132
 30
0.0
 11
387.745
 21
103.637
 31
0.0
  0
LINE
  8
0
 62
     0
 10
387.745
 20
103.637
 30
0.0
 11
387.823
 21
103.142
 31
0.0
  0
LINE
  8
0
 62
     0
 10
387.823
 20
103.142
 30
0.0
 11
388.048
 21
102.695
 31
0.0
  0
LINE
  8
0
 62
     0
 10
388.048
 20
102.695
 30
0.0
 11
388.405
 21
102.342
 31
0.0
  0
LINE
  8
0
 62
     0
 10
388.405
 20
102.342
 30
0.0
 11
388.849
 21
102.115
 31
0.0
  0
LINE
  8
0
 62
     0
 10
388.849
 20
102.115
 30
0.0
 11
389.347
 21
102.035
 31
0.0
  0
LINE
  8
0
 62
     0
 10
389.347
 20
102.035
 30
0.0
 11
389.841
 21
102.115
 31
0.0
  0
LINE
  8
0
 62
     0
 10
389.841
 20
102.115
 30
0.0
 11
390.285
 21
102.342
 31
0.0
  0
LINE
  8
0
 62
     0
 10
390.285
 20
102.342
 30
0.0
 11
390.638
 21
102.695
 31
0.0
  0
LINE
  8
0
 62
     0
 10
390.638
 20
102.695
 30
0.0
 11
390.867
 21
103.142
 31
0.0
  0
LINE
  8
0
 62
     0
 10
390.867
 20
103.142
 30
0.0
 11
390.945
 21
103.637
 31
0.0
  0
LINE
  8
0
 62
     0
 10
390.945
 20
103.637
 30
0.0
 11
390.867
 21
104.132
 31
0.0
  0
LINE
  8
0
 62
     0
 10
390.867
 20
104.132
 30
0.0
 11
390.638
 21
104.577
 31
0.0
  0
LINE
  8
0
 62
     0
 10
390.638
 20
104.577
 30
0.0
 11
390.285
 21
104.931
 31
0.0
  0
LINE
  8
0
 62
     0
 10
390.285
 20
104.931
 30
0.0
 11
389.841
 21
105.158
 31
0.0
  0
LINE
  8
0
 62
     0
 10
389.841
 20
105.158
 30
0.0
 11
389.347
 21
105.237
 31
0.0
  0
LINE
  8
0
 62
     0
 10
389.347
 20
105.237
 30
0.0
 11
388.849
 21
105.158
 31
0.0
  0
LINE
  8
0
 62
     0
 10
1.3491
 20
105.158
 30
0.0
 11
0.903993
 21
104.931
 31
0.0
  0
LINE
  8
0
 62
     0
 10
0.903993
 20
104.931
 30
0.0
 11
0.549836
 21
104.577
 31
0.0
  0
LINE
  8
0
 62
     0
 10
0.549836
 20
104.577
 30
0.0
 11
0.322461
 21
104.132
 31
0.0
  0
LINE
  8
0
 62
     0
 10
0.322461
 20
104.132
 30
0.0
 11
0.243913
 21
103.637
 31
0.0
  0
LINE
  8
0
 62
     0
 10
0.243913
 20
103.637
 30
0.0
 11
0.322461
 21
103.142
 31
0.0
  0
LINE
  8
0
 62
     0
 10
0.322461
 20
103.142
 30
0.0
 11
0.549836
 21
102.695
 31
0.0
  0
LINE
  8
0
 62
     0
 10
0.549836
 20
102.695
 30
0.0
 11
0.903993
 21
102.342
 31
0.0
  0
LINE
  8
0
 62
     0
 10
0.903993
 20
102.342
 30
0.0
 11
1.3491
 21
102.115
 31
0.0
  0
LINE
  8
0
 62
     0
 10
1.3491
 20
102.115
 30
0.0
 11
1.84381
 21
102.035
 31
0.0
  0
LINE
  8
0
 62
     0
 10
1.84381
 20
102.035
 30
0.0
 11
2.33853
 21
102.115
 31
0.0
  0
LINE
  8
0
 62
     0
 10
2.33853
 20
102.115
 30
0.0
 11
2.78501
 21
102.342
 31
0.0
  0
LINE
  8
0
 62
     0
 10
2.78501
 20
102.342
 30
0.0
 11
3.13917
 21
102.695
 31
0.0
  0
LINE
  8
0
 62
     0
 10
3.13917
 20
102.695
 30
0.0
 11
3.36517
 21
103.142
 31
0.0
  0
LINE
  8
0
 62
     0
 10
3.36517
 20
103.142
 30
0.0
 11
3.4451
 21
103.637
 31
0.0
  0
LINE
  8
0
 62
     0
 10
3.4451
 20
103.637
 30
0.0
 11
3.36517
 21
104.132
 31
0.0
  0
LINE
  8
0
 62
     0
 10
3.36517
 20
104.132
 30
0.0
 11
3.13917
 21
104.577
 31
0.0
  0
LINE
  8
0
 62
     0
 10
3.13917
 20
104.577
 30
0.0
 11
2.78501
 21
104.931
 31
0.0
  0
LINE
  8
0
 62
     0
 10
2.78501
 20
104.931
 30
0.0
 11
2.33853
 21
105.158
 31
0.0
  0
LINE
  8
0
 62
     0
 10
2.33853
 20
105.158
 30
0.0
 11
1.84381
 21
105.237
 31
0.0
  0
LINE
  8
0
 62
     0
 10
1.84381
 20
105.237
 30
0.0
 11
1.3491
 21
105.158
 31
0.0
  0
ENDSEC
  0
EOF
